<?xml version="1.0" standalone="no"?>
<!DOCTYPE svg PUBLIC "-//W3C//DTD SVG 20010904//EN"
 "http://www.w3.org/TR/2001/REC-SVG-20010904/DTD/svg10.dtd">
<svg version="1.0" xmlns="http://www.w3.org/2000/svg"
 width="148.000000pt" height="148.000000pt" viewBox="0 0 148.000000 148.000000"
 preserveAspectRatio="xMidYMid meet">

<g transform="translate(0.000000,148.000000) scale(0.100000,-0.100000)"
fill="#000000" stroke="none">
<path d="M183 1308 c-22 -11 -23 -16 -23 -140 l0 -128 140 0 140 0 0 140 0
140 -117 -1 c-65 0 -128 -5 -140 -11z m217 -128 l0 -100 -100 0 -100 0 0 100
0 100 100 0 100 0 0 -100z"/>
<path d="M240 1180 l0 -60 60 0 60 0 0 60 0 60 -60 0 -60 0 0 -60z"/>
<path d="M480 1280 c0 -33 3 -40 20 -40 13 0 20 -7 20 -20 0 -13 -7 -20 -20
-20 -13 0 -20 -7 -20 -20 0 -13 7 -20 20 -20 13 0 20 7 20 20 0 17 7 20 40 20
l40 0 0 60 c0 53 -2 60 -20 60 -17 0 -20 -7 -20 -40 0 -33 -3 -40 -20 -40 -17
0 -20 7 -20 40 0 33 -3 40 -20 40 -17 0 -20 -7 -20 -40z"/>
<path d="M640 1280 l0 -40 40 0 c33 0 40 3 40 20 0 17 7 20 40 20 l40 0 0 -40
0 -40 -40 0 -40 0 0 -40 c0 -33 -3 -40 -20 -40 -13 0 -20 -7 -20 -20 0 -13 -7
-20 -20 -20 -13 0 -20 -7 -20 -20 0 -13 -7 -20 -20 -20 -17 0 -20 7 -20 40 0
33 3 40 20 40 13 0 20 7 20 20 0 13 7 20 20 20 13 0 20 7 20 20 0 13 -7 20
-20 20 -13 0 -20 -7 -20 -20 0 -13 -7 -20 -20 -20 -13 0 -20 -7 -20 -20 0 -13
-7 -20 -20 -20 -17 0 -20 -7 -20 -40 0 -33 3 -40 20 -40 13 0 20 -7 20 -20 0
-13 -7 -20 -20 -20 -13 0 -20 -7 -20 -20 0 -13 7 -20 20 -20 13 0 20 7 20 20
0 13 7 20 20 20 17 0 20 -7 20 -40 0 -33 3 -40 20 -40 13 0 20 -7 20 -20 0
-13 -7 -20 -20 -20 -13 0 -20 -7 -20 -20 0 -13 7 -20 20 -20 13 0 20 7 20 20
0 13 7 20 20 20 13 0 20 7 20 20 0 17 7 20 40 20 l40 0 0 -40 0 -40 -40 0 -40
0 0 -40 0 -40 -40 0 c-33 0 -40 3 -40 20 0 13 -7 20 -20 20 -13 0 -20 -7 -20
-20 0 -17 -7 -20 -40 -20 -33 0 -40 3 -40 20 0 13 -7 20 -20 20 -13 0 -20 7
-20 20 0 18 7 20 60 20 l60 0 0 40 c0 33 -3 40 -20 40 -13 0 -20 -7 -20 -20 0
-13 -7 -20 -20 -20 -13 0 -20 7 -20 20 0 13 -7 20 -20 20 -17 0 -20 -7 -20
-40 l0 -40 -60 0 -60 0 0 40 c0 33 -3 40 -20 40 -13 0 -20 -7 -20 -20 0 -13
-7 -20 -20 -20 -13 0 -20 7 -20 20 0 13 -7 20 -20 20 -13 0 -20 -7 -20 -20 0
-13 -7 -20 -20 -20 -18 0 -20 7 -20 60 0 53 -2 60 -20 60 -18 0 -20 -7 -20
-60 0 -53 2 -60 20 -60 13 0 20 -7 20 -20 0 -17 7 -20 40 -20 33 0 40 -3 40
-20 0 -13 -7 -20 -20 -20 -13 0 -20 -7 -20 -20 0 -13 7 -20 20 -20 13 0 20 -7
20 -20 0 -13 7 -20 20 -20 13 0 20 -7 20 -20 0 -13 -7 -20 -20 -20 -17 0 -20
-7 -20 -40 0 -33 -3 -40 -20 -40 -13 0 -20 7 -20 20 0 13 -7 20 -20 20 -13 0
-20 -7 -20 -20 0 -13 -7 -20 -20 -20 -13 0 -20 -7 -20 -20 0 -13 7 -20 20 -20
13 0 20 7 20 20 0 13 7 20 20 20 13 0 20 -7 20 -20 0 -13 7 -20 20 -20 13 0
20 -7 20 -20 0 -17 -7 -20 -40 -20 -33 0 -40 -3 -40 -20 0 -18 7 -20 60 -20
53 0 60 2 60 20 0 13 7 20 20 20 13 0 20 -7 20 -20 0 -17 7 -20 40 -20 33 0
40 3 40 20 0 17 -7 20 -40 20 -33 0 -40 3 -40 20 0 17 7 20 40 20 33 0 40 3
40 20 0 13 7 20 20 20 13 0 20 -7 20 -20 0 -13 7 -20 20 -20 13 0 20 7 20 20
0 13 -7 20 -20 20 -13 0 -20 7 -20 20 0 13 7 20 20 20 13 0 20 7 20 20 0 13
-7 20 -20 20 -13 0 -20 -7 -20 -20 0 -13 -7 -20 -20 -20 -13 0 -20 7 -20 20 0
17 -7 20 -40 20 -33 0 -40 3 -40 20 0 18 7 20 60 20 53 0 60 2 60 20 0 13 7
20 20 20 13 0 20 -7 20 -20 0 -13 7 -20 20 -20 13 0 20 -7 20 -20 0 -13 7 -20
20 -20 13 0 20 7 20 20 0 18 7 20 60 20 l60 0 0 -60 0 -60 -40 0 c-33 0 -40
-3 -40 -20 0 -17 -7 -20 -40 -20 -33 0 -40 -3 -40 -20 0 -18 7 -20 60 -20 53
0 60 -2 60 -20 0 -18 7 -20 80 -20 73 0 80 -2 80 -20 0 -13 7 -20 20 -20 13 0
20 -7 20 -20 0 -17 7 -20 40 -20 l40 0 0 -40 c0 -33 3 -40 20 -40 13 0 20 -7
20 -20 0 -13 7 -20 20 -20 13 0 20 7 20 20 0 13 7 20 20 20 17 0 20 -7 20 -40
0 -33 3 -40 20 -40 13 0 20 7 20 20 0 17 7 20 40 20 33 0 40 -3 40 -20 0 -13
-7 -20 -20 -20 -17 0 -20 -7 -20 -40 0 -33 3 -40 20 -40 17 0 20 7 20 40 0 33
3 40 20 40 17 0 20 -7 20 -40 0 -33 3 -40 20 -40 17 0 20 7 20 40 0 33 3 40
20 40 17 0 20 7 20 40 0 33 -3 40 -20 40 -13 0 -20 7 -20 20 0 13 7 20 20 20
13 0 20 7 20 20 0 13 -7 20 -20 20 -13 0 -20 7 -20 20 0 13 7 20 20 20 13 0
20 7 20 20 0 17 -7 20 -40 20 l-40 0 0 60 c0 53 2 60 20 60 18 0 20 7 20 60 0
53 2 60 20 60 17 0 20 7 20 40 l0 40 -40 0 c-33 0 -40 3 -40 20 0 17 -7 20
-40 20 -33 0 -40 -3 -40 -20 0 -13 7 -20 20 -20 17 0 20 -7 20 -40 0 -33 3
-40 20 -40 17 0 20 -7 20 -40 0 -33 -3 -40 -20 -40 -13 0 -20 7 -20 20 0 13
-7 20 -20 20 -17 0 -20 7 -20 40 0 33 -3 40 -20 40 -13 0 -20 -7 -20 -20 0
-13 -7 -20 -20 -20 -19 0 -20 -7 -20 -100 l0 -100 -60 0 c-53 0 -60 2 -60 20
0 17 7 20 40 20 l40 0 0 100 c0 93 1 100 20 100 13 0 20 7 20 20 0 13 -7 20
-20 20 -13 0 -20 -7 -20 -20 0 -13 -7 -20 -20 -20 -13 0 -20 -7 -20 -20 0 -13
-7 -20 -20 -20 -18 0 -20 7 -20 80 l0 80 -40 0 c-33 0 -40 -3 -40 -20 0 -13
-7 -20 -20 -20 -17 0 -20 7 -20 40 0 33 -3 40 -20 40 -17 0 -20 7 -20 40 0 33
3 40 20 40 13 0 20 -7 20 -20 0 -13 7 -20 20 -20 13 0 20 -7 20 -20 0 -17 7
-20 40 -20 33 0 40 3 40 20 0 13 -7 20 -20 20 -13 0 -20 7 -20 20 0 13 7 20
20 20 13 0 20 7 20 20 0 13 7 20 20 20 13 0 20 7 20 20 0 13 -7 20 -20 20 -17
0 -20 7 -20 40 0 33 3 40 20 40 18 0 20 7 20 80 l0 80 -60 0 c-53 0 -60 -2
-60 -20 0 -17 -7 -20 -40 -20 -33 0 -40 3 -40 20 0 18 -7 20 -80 20 l-80 0 0
-40z m320 -60 l0 -60 -40 0 c-33 0 -40 3 -40 20 0 13 -7 20 -20 20 -13 0 -20
-7 -20 -20 0 -13 -7 -20 -20 -20 -13 0 -20 -7 -20 -20 0 -13 -7 -20 -20 -20
-13 0 -20 -7 -20 -20 0 -13 7 -20 20 -20 13 0 20 -7 20 -20 0 -13 -7 -20 -20
-20 -17 0 -20 -7 -20 -40 0 -33 -3 -40 -20 -40 -13 0 -20 7 -20 20 0 17 -7 20
-40 20 -33 0 -40 3 -40 20 0 13 7 20 20 20 13 0 20 7 20 20 0 13 7 20 20 20
13 0 20 7 20 20 0 13 7 20 20 20 13 0 20 7 20 20 0 13 7 20 20 20 13 0 20 7
20 20 0 13 7 20 20 20 13 0 20 7 20 20 0 13 7 20 20 20 13 0 20 -7 20 -20 0
-13 7 -20 20 -20 17 0 20 7 20 40 0 33 3 40 20 40 18 0 20 -7 20 -60z m-40
-120 c0 -13 7 -20 20 -20 13 0 20 -7 20 -20 0 -13 -7 -20 -20 -20 -13 0 -20
-7 -20 -20 0 -13 -7 -20 -20 -20 -13 0 -20 7 -20 20 0 13 -7 20 -20 20 -13 0
-20 7 -20 20 0 13 7 20 20 20 13 0 20 7 20 20 0 13 7 20 20 20 13 0 20 -7 20
-20z m-560 -280 c0 -13 -7 -20 -20 -20 -13 0 -20 7 -20 20 0 13 7 20 20 20 13
0 20 -7 20 -20z m480 0 c0 -13 -7 -20 -20 -20 -13 0 -20 -7 -20 -20 0 -13 -7
-20 -20 -20 -13 0 -20 -7 -20 -20 0 -13 7 -20 20 -20 13 0 20 -7 20 -20 0 -13
7 -20 20 -20 17 0 20 7 20 40 0 33 3 40 20 40 17 0 20 7 20 40 0 33 3 40 20
40 17 0 20 -7 20 -40 0 -33 -3 -40 -20 -40 -13 0 -20 -7 -20 -20 0 -13 7 -20
20 -20 13 0 20 -7 20 -20 0 -13 -7 -20 -20 -20 -13 0 -20 -7 -20 -20 0 -17 7
-20 40 -20 l40 0 0 -40 c0 -33 -3 -40 -20 -40 -13 0 -20 -7 -20 -20 0 -13 7
-20 20 -20 17 0 20 -7 20 -40 0 -33 -3 -40 -20 -40 -13 0 -20 7 -20 20 0 13
-7 20 -20 20 -17 0 -20 7 -20 40 0 33 -3 40 -20 40 -13 0 -20 7 -20 20 0 13 7
20 20 20 13 0 20 7 20 20 0 17 -7 20 -40 20 -33 0 -40 -3 -40 -20 0 -13 -7
-20 -20 -20 -13 0 -20 7 -20 20 0 13 7 20 20 20 13 0 20 7 20 20 0 13 -7 20
-20 20 -13 0 -20 7 -20 20 0 13 -7 20 -20 20 -13 0 -20 7 -20 20 0 13 7 20 20
20 13 0 20 7 20 20 0 13 7 20 20 20 13 0 20 7 20 20 0 13 7 20 20 20 13 0 20
-7 20 -20z m-360 -40 c0 -17 -7 -20 -40 -20 -33 0 -40 3 -40 20 0 17 7 20 40
20 33 0 40 -3 40 -20z m-120 -40 c0 -13 -7 -20 -20 -20 -13 0 -20 7 -20 20 0
13 7 20 20 20 13 0 20 -7 20 -20z m80 -120 c0 -13 -7 -20 -20 -20 -13 0 -20 7
-20 20 0 13 7 20 20 20 13 0 20 -7 20 -20z m720 0 c0 -13 7 -20 20 -20 17 0
20 -7 20 -40 l0 -40 -40 0 c-33 0 -40 3 -40 20 0 13 7 20 20 20 13 0 20 7 20
20 0 13 -7 20 -20 20 -13 0 -20 7 -20 20 0 13 7 20 20 20 13 0 20 -7 20 -20z
m-840 -40 c0 -13 -7 -20 -20 -20 -13 0 -20 7 -20 20 0 13 7 20 20 20 13 0 20
-7 20 -20z m800 -160 l0 -60 -60 0 -60 0 0 60 0 60 60 0 60 0 0 -60z m120 0
c0 -13 7 -20 20 -20 13 0 20 -7 20 -20 0 -17 -7 -20 -40 -20 -33 0 -40 -3 -40
-20 0 -17 7 -20 40 -20 l40 0 0 -40 c0 -33 -3 -40 -20 -40 -13 0 -20 7 -20 20
0 13 -7 20 -20 20 -13 0 -20 7 -20 20 0 13 -7 20 -20 20 -13 0 -20 7 -20 20 0
13 7 20 20 20 17 0 20 7 20 40 0 33 3 40 20 40 13 0 20 -7 20 -20z"/>
<path d="M720 1060 c0 -13 7 -20 20 -20 13 0 20 7 20 20 0 13 -7 20 -20 20
-13 0 -20 -7 -20 -20z"/>
<path d="M880 1060 c0 -13 7 -20 20 -20 13 0 20 7 20 20 0 13 -7 20 -20 20
-13 0 -20 -7 -20 -20z"/>
<path d="M1040 420 c0 -13 7 -20 20 -20 13 0 20 7 20 20 0 13 -7 20 -20 20
-13 0 -20 -7 -20 -20z"/>
<path d="M1040 1180 l0 -140 140 0 140 0 0 140 0 140 -140 0 -140 0 0 -140z
m240 0 l0 -100 -100 0 -100 0 0 100 0 100 100 0 100 0 0 -100z"/>
<path d="M1120 1180 l0 -60 60 0 60 0 0 60 0 60 -60 0 -60 0 0 -60z"/>
<path d="M480 1040 l0 -40 -60 0 c-53 0 -60 -2 -60 -20 0 -18 7 -20 60 -20 53
0 60 2 60 20 0 13 7 20 20 20 17 0 20 7 20 40 0 33 -3 40 -20 40 -17 0 -20 -7
-20 -40z"/>
<path d="M240 980 c0 -17 7 -20 40 -20 33 0 40 3 40 20 0 17 -7 20 -40 20 -33
0 -40 -3 -40 -20z"/>
<path d="M1040 980 c0 -13 -7 -20 -20 -20 -18 0 -20 -7 -20 -60 l0 -60 40 0
c33 0 40 3 40 20 0 13 -7 20 -20 20 -13 0 -20 7 -20 20 0 18 7 20 60 20 53 0
60 2 60 20 0 13 7 20 20 20 13 0 20 7 20 20 0 13 -7 20 -20 20 -13 0 -20 -7
-20 -20 0 -17 -7 -20 -40 -20 -33 0 -40 3 -40 20 0 13 -7 20 -20 20 -13 0 -20
-7 -20 -20z"/>
<path d="M1240 980 c0 -13 7 -20 20 -20 13 0 20 -7 20 -20 0 -17 -7 -20 -40
-20 -33 0 -40 -3 -40 -20 0 -17 7 -20 40 -20 33 0 40 -3 40 -20 0 -13 7 -20
20 -20 13 0 20 7 20 20 0 13 -7 20 -20 20 -13 0 -20 7 -20 20 0 13 7 20 20 20
17 0 20 7 20 40 l0 40 -40 0 c-33 0 -40 -3 -40 -20z"/>
<path d="M400 900 c0 -13 7 -20 20 -20 13 0 20 7 20 20 0 13 -7 20 -20 20 -13
0 -20 -7 -20 -20z"/>
<path d="M160 700 c0 -13 7 -20 20 -20 13 0 20 7 20 20 0 13 -7 20 -20 20 -13
0 -20 -7 -20 -20z"/>
<path d="M560 620 c0 -13 7 -20 20 -20 13 0 20 7 20 20 0 13 -7 20 -20 20 -13
0 -20 -7 -20 -20z"/>
<path d="M480 440 l0 -80 40 0 c33 0 40 -3 40 -20 0 -17 -7 -20 -40 -20 l-40
0 0 -40 0 -40 40 0 c33 0 40 -3 40 -20 0 -17 -7 -20 -40 -20 -33 0 -40 -3 -40
-20 0 -17 7 -20 40 -20 33 0 40 3 40 20 0 17 7 20 40 20 33 0 40 -3 40 -20 0
-18 7 -20 60 -20 53 0 60 2 60 20 0 13 7 20 20 20 13 0 20 -7 20 -20 0 -13 7
-20 20 -20 13 0 20 7 20 20 0 13 -7 20 -20 20 -13 0 -20 7 -20 20 0 13 7 20
20 20 13 0 20 7 20 20 0 13 7 20 20 20 17 0 20 7 20 40 0 33 -3 40 -20 40 -13
0 -20 7 -20 20 0 13 -7 20 -20 20 -13 0 -20 -7 -20 -20 0 -13 -7 -20 -20 -20
-17 0 -20 7 -20 40 0 33 -3 40 -20 40 -13 0 -20 -7 -20 -20 0 -13 -7 -20 -20
-20 -13 0 -20 7 -20 20 0 13 -7 20 -20 20 -13 0 -20 7 -20 20 0 17 -7 20 -40
20 -33 0 -40 -3 -40 -20 0 -13 -7 -20 -20 -20 -17 0 -20 7 -20 40 0 33 -3 40
-20 40 -18 0 -20 -7 -20 -80z m120 -60 c0 -13 -7 -20 -20 -20 -13 0 -20 7 -20
20 0 13 7 20 20 20 13 0 20 -7 20 -20z m160 -60 c0 -33 3 -40 20 -40 13 0 20
-7 20 -20 0 -13 -7 -20 -20 -20 -13 0 -20 7 -20 20 0 13 -7 20 -20 20 -17 0
-20 -7 -20 -40 l0 -40 -40 0 c-33 0 -40 3 -40 20 0 13 -7 20 -20 20 -13 0 -20
7 -20 20 0 13 7 20 20 20 13 0 20 -7 20 -20 0 -13 7 -20 20 -20 13 0 20 7 20
20 0 13 7 20 20 20 13 0 20 7 20 20 0 17 -7 20 -40 20 -33 0 -40 3 -40 20 0
18 7 20 60 20 l60 0 0 -40z"/>
<path d="M160 300 l0 -140 140 0 140 0 0 140 0 140 -140 0 -140 0 0 -140z
m240 0 l0 -100 -100 0 -100 0 0 100 0 100 100 0 100 0 0 -100z"/>
<path d="M240 300 l0 -60 60 0 60 0 0 60 0 60 -60 0 -60 0 0 -60z"/>
<path d="M920 240 c0 -33 -3 -40 -20 -40 -13 0 -20 -7 -20 -20 0 -18 7 -20 80
-20 l80 0 0 40 0 40 -40 0 c-33 0 -40 3 -40 20 0 13 -7 20 -20 20 -17 0 -20
-7 -20 -40z"/>
<path d="M1080 180 c0 -13 7 -20 20 -20 13 0 20 7 20 20 0 13 -7 20 -20 20
-13 0 -20 -7 -20 -20z"/>
</g>
</svg>
